<?xml version="1.0" standalone="no"?>
<!DOCTYPE svg PUBLIC "-//W3C//DTD SVG 20010904//EN"
 "http://www.w3.org/TR/2001/REC-SVG-20010904/DTD/svg10.dtd">
<svg version="1.0" xmlns="http://www.w3.org/2000/svg"
 width="512.000000pt" height="512.000000pt" viewBox="0 0 512.000000 512.000000"
 preserveAspectRatio="xMidYMid meet">

<g transform="translate(0.000000,512.000000) scale(0.100000,-0.100000)"
fill="#000000" stroke="none">
<path d="M2355 5054 c-551 -63 -950 -219 -1360 -533 -124 -95 -328 -296 -427
-421 -561 -705 -716 -1637 -412 -2477 249 -688 778 -1235 1459 -1508 155 -62
226 -73 318 -46 64 19 138 86 166 151 21 49 22 62 19 315 -3 294 -3 291 -79
343 -38 26 -63 26 -217 2 -90 -14 -204 -4 -279 26 -21 8 -27 12 -13 8 14 -3
80 -8 147 -11 140 -6 231 9 328 56 84 40 104 65 126 161 22 96 37 127 95 198
62 76 70 147 23 213 -31 44 -65 57 -206 79 -506 81 -738 282 -830 720 -13 63
-18 132 -18 270 0 182 1 186 32 275 34 100 83 189 138 255 72 87 78 116 45
252 -34 143 -22 358 20 358 57 0 265 -94 394 -179 42 -27 89 -52 105 -56 16
-3 75 5 142 20 200 45 333 58 544 52 187 -5 279 -17 455 -58 48 -11 99 -18
117 -14 17 3 66 28 108 55 127 84 339 180 394 180 44 0 54 -210 18 -360 -31
-128 -25 -159 49 -252 112 -144 161 -280 171 -469 12 -242 -46 -509 -146 -664
-139 -217 -345 -327 -718 -384 -137 -21 -181 -42 -207 -96 -34 -70 -23 -125
39 -205 103 -134 105 -143 105 -635 0 -391 1 -412 21 -455 40 -89 112 -142
215 -159 104 -16 200 13 449 134 1245 610 1779 2104 1200 3364 -421 917 -1348
1509 -2345 1500 -85 -1 -168 -4 -185 -5z"/>
</g>
</svg>
